<?xml version="1.0" encoding="utf-8"?>
<!-- Generator: Adobe Illustrator 22.1.0, SVG Export Plug-In . SVG Version: 6.00 Build 0)  -->
<svg version="1.1" id="レイヤー_1" xmlns="http://www.w3.org/2000/svg" xmlns:xlink="http://www.w3.org/1999/xlink" x="0px"
	 y="0px" viewBox="0 0 231 106.7" style="enable-background:new 0 0 231 106.7;" xml:space="preserve">
<style type="text/css">
	.st0{fill:#DB3B23;}
	.st1{fill:#E8391F;}
	.st2{font-family:'HiraKakuStd-W8-83pv-RKSJ-H';}
	.st3{font-size:18px;}
	.st4{font-size:20px;}
</style>
<path class="st0" d="M46.6,62.6c-1-3.2-1.6-4.7-3-6.3c-2.1-2.5-5.1-3.8-9-3.8c-8.7,0-13.8,6.9-13.8,18.6c0,11.6,5.5,19.1,14,19.1
	c4.2,0,8-1.7,10.2-4.7c1-1.4,1.5-2.5,1.9-4.9l19.7,3.1c-1.2,4.6-2.5,7.5-4.5,10.6c-5.4,7.9-15.1,12.3-27.5,12.3
	c-10.3,0-19.1-3.2-25-9.2C3.4,91.3,0,81.9,0,71.4C0,50,13.5,36.3,34.4,36.3c16.5,0,28,8.1,31.5,22.4L46.6,62.6z"/>
<path d="M71.8,45c-2.4-5.6-2.6-6.1-3.3-7.4h12c0.3,1.8,1,4.2,2.2,7.2l5.1,12.8L92.7,45c1.6-3.8,2.1-5.4,2.4-7.4h12
	c-1.4,2.9-1.4,2.9-3.3,7.4L91.1,74.4c-2.2,5.2-6.2,7.6-12.5,7.6c-2.4,0-4.6-0.3-7.6-0.9l1.2-8.8c1.8,0.9,2.9,1.2,4.3,1.2
	c2.1,0,3.7-0.9,4.5-2.6l1.2-2.4L71.8,45z"/>
<path d="M133.1,49.9c-0.5-1.7-0.8-2.4-1.6-3.3c-1.1-1.3-2.7-1.9-4.7-1.9c-4.5,0-7.2,3.6-7.2,9.7c0,6,2.8,9.9,7.3,9.9
	c2.2,0,4.2-0.9,5.3-2.4c0.5-0.7,0.8-1.3,1-2.6l10.2,1.6c-0.6,2.4-1.3,3.9-2.3,5.5c-2.8,4.1-7.8,6.4-14.3,6.4
	c-5.3,0-9.9-1.7-12.9-4.8c-3.2-3.2-5-8.1-5-13.5c0-11.1,7-18.2,17.8-18.2c8.6,0,14.5,4.2,16.3,11.6L133.1,49.9z"/>
<path d="M159.4,25.3c-0.3,2.3-0.4,4.6-0.4,8.4v29.4c0,3.3,0.1,5.4,0.4,8.4h-11.6c0.3-2.5,0.4-4.4,0.4-8.4V33.7
	c0-3.9-0.1-6.3-0.4-8.4H159.4z"/>
<path d="M183.3,77.1c1.1,8.6,6,13.1,14.4,13.1c4.2,0,8-1.4,10.7-3.9c1.6-1.5,2.3-2.7,3.2-5.4l18.4,5.2c-2.4,5.5-4,8-7,10.9
	c-6,5.9-14.5,9-25,9c-10.4,0-18.6-3-24.6-9c-6.3-6.4-9.6-15.4-9.6-25.9c0-21,13.5-34.9,33.7-34.9c16.5,0,28.1,9,31.8,24.8
	c0.8,3.4,1.3,7.8,1.6,13.9c0,0.4,0,1.1,0.1,2.1H183.3z M210.9,62.4c-1.5-6.8-6-10.4-13.4-10.4c-7.5,0-12.1,3.4-13.9,10.4H210.9z"/>
<text transform="matrix(1 0 0 1 25.6603 33.6667)"><tspan x="0" y="0" class="st1 st2 st3">N</tspan><tspan x="15.7" y="0" class="st2 st3">AKAJIMA</tspan></text>
<text transform="matrix(1 0 0 1 86.5611 88.1047)" class="st2 st4">.com</text>
<rect x="147.7" width="13.1" height="72"/>
<rect x="121.4" width="26.3" height="3.7"/>
</svg>
